<?xml version="1.0" standalone="no"?><!DOCTYPE svg PUBLIC "-//W3C//DTD SVG 1.1//EN" "http://www.w3.org/Graphics/SVG/1.1/DTD/svg11.dtd"><svg xmlns:xlink="http://www.w3.org/1999/xlink" version="1.1" class="highcharts-root" style="font-family: Helvetica, Arial, sans-serif; font-size: 1rem;" xmlns="http://www.w3.org/2000/svg" width="600" height="400" viewBox="0 0 600 400" aria-label="Interactive chart" aria-hidden="false"><desc aria-hidden="true">Created with Highcharts 11.2.0</desc><defs aria-hidden="true"><filter id="highcharts-drop-shadow-1"><feDropShadow dx="1" dy="1" flood-color="#000000" flood-opacity="0.75" stdDeviation="2.5"></feDropShadow></filter><clipPath id="highcharts-rmny0lb-81-"><rect x="0" y="0" width="392" height="296" fill="none"></rect></clipPath><clipPath id="highcharts-rmny0lb-94-"><rect x="0" y="0" width="392" height="296" fill="none"></rect></clipPath></defs><rect fill="#ffffff" class="highcharts-background" filter="none" x="0" y="0" width="600" height="400" rx="0" ry="0" aria-hidden="true"></rect><rect fill="none" class="highcharts-plot-background" x="85" y="60" width="392" height="296" filter="none" aria-hidden="true"></rect><g class="highcharts-grid highcharts-xaxis-grid" data-z-index="1" aria-hidden="true"><path fill="none" stroke="#e6e6e6" stroke-width="0" stroke-dasharray="none" data-z-index="1" class="highcharts-grid-line" d="M 88.5 60 L 88.5 356" opacity="1"></path><path fill="none" stroke="#e6e6e6" stroke-width="0" stroke-dasharray="none" data-z-index="1" class="highcharts-grid-line" d="M 158.5 60 L 158.5 356" opacity="1"></path><path fill="none" stroke="#e6e6e6" stroke-width="0" stroke-dasharray="none" data-z-index="1" class="highcharts-grid-line" d="M 228.5 60 L 228.5 356" opacity="1"></path><path fill="none" stroke="#e6e6e6" stroke-width="0" stroke-dasharray="none" data-z-index="1" class="highcharts-grid-line" d="M 297.5 60 L 297.5 356" opacity="1"></path><path fill="none" stroke="#e6e6e6" stroke-width="0" stroke-dasharray="none" data-z-index="1" class="highcharts-grid-line" d="M 367.5 60 L 367.5 356" opacity="1"></path><path fill="none" stroke="#e6e6e6" stroke-width="0" stroke-dasharray="none" data-z-index="1" class="highcharts-grid-line" d="M 437.5 60 L 437.5 356" opacity="1"></path></g><g class="highcharts-grid highcharts-yaxis-grid" data-z-index="1" aria-hidden="true"><path fill="none" stroke="#e6e6e6" stroke-width="1" stroke-dasharray="none" data-z-index="1" class="highcharts-grid-line" d="M 85 356.5 L 477 356.5" opacity="1"></path><path fill="none" stroke="#e6e6e6" stroke-width="1" stroke-dasharray="none" data-z-index="1" class="highcharts-grid-line" d="M 85 297.5 L 477 297.5" opacity="1"></path><path fill="none" stroke="#e6e6e6" stroke-width="1" stroke-dasharray="none" data-z-index="1" class="highcharts-grid-line" d="M 85 238.5 L 477 238.5" opacity="1"></path><path fill="none" stroke="#e6e6e6" stroke-width="1" stroke-dasharray="none" data-z-index="1" class="highcharts-grid-line" d="M 85 178.5 L 477 178.5" opacity="1"></path><path fill="none" stroke="#e6e6e6" stroke-width="1" stroke-dasharray="none" data-z-index="1" class="highcharts-grid-line" d="M 85 119.5 L 477 119.5" opacity="1"></path><path fill="none" stroke="#e6e6e6" stroke-width="1" stroke-dasharray="none" data-z-index="1" class="highcharts-grid-line" d="M 85 59.5 L 477 59.5" opacity="1"></path></g><rect fill="none" class="highcharts-plot-border" data-z-index="1" stroke="#cccccc" stroke-width="0" x="85" y="60" width="392" height="296" aria-hidden="true"></rect><g class="highcharts-axis highcharts-xaxis" data-z-index="2" aria-hidden="true"><path fill="none" class="highcharts-tick" stroke="#333333" stroke-width="1" d="M 88.5 356 L 88.5 366" opacity="1"></path><path fill="none" class="highcharts-tick" stroke="#333333" stroke-width="1" d="M 158.5 356 L 158.5 366" opacity="1"></path><path fill="none" class="highcharts-tick" stroke="#333333" stroke-width="1" d="M 228.5 356 L 228.5 366" opacity="1"></path><path fill="none" class="highcharts-tick" stroke="#333333" stroke-width="1" d="M 297.5 356 L 297.5 366" opacity="1"></path><path fill="none" class="highcharts-tick" stroke="#333333" stroke-width="1" d="M 367.5 356 L 367.5 366" opacity="1"></path><path fill="none" class="highcharts-tick" stroke="#333333" stroke-width="1" d="M 437.5 356 L 437.5 366" opacity="1"></path><path fill="none" class="highcharts-axis-line" stroke="#333333" stroke-width="1" data-z-index="7" d="M 85 356.5 L 477 356.5"></path></g><g class="highcharts-axis highcharts-yaxis" data-z-index="2" aria-hidden="true"><text x="24.416664123535156" data-z-index="7" text-anchor="middle" transform="translate(0,0) rotate(270 24.416664123535156 208)" class="highcharts-axis-title" style="color: rgb(102, 102, 102); font-size: 0.8em; fill: rgb(102, 102, 102);" y="208">入境觀光客人數</text><path fill="none" class="highcharts-axis-line" stroke="#333333" stroke-width="0" data-z-index="7" d="M 85 60 L 85 356"></path></g><g class="highcharts-series-group" data-z-index="3" filter="none" aria-hidden="false"><g class="highcharts-series highcharts-series-0 highcharts-line-series highcharts-color-0" data-z-index="0.1" opacity="1" transform="translate(85,60) scale(1 1)" clip-path="url(#highcharts-rmny0lb-94-)" aria-hidden="true"><path fill="none" d="M 3.8431372549019 171.3435072 L 38.780748663102 142.70316288 L 73.718360071301 126.95354752 L 108.6559714795 83.58599552000001 L 143.5935828877 71.76084288000001 L 178.5311942959 68.08490176000001 L 213.4688057041 69.0121632 L 248.4064171123 62.85237952 L 283.3440285205 45.89896768 L 318.2816399287 267.96318784 L 353.2192513369 293.49001472 L 388.1568627451 279.49996544" class="highcharts-graph" data-z-index="1" stroke="#2caffe" stroke-width="2" stroke-linejoin="round" stroke-linecap="round" filter="none"></path></g><g class="highcharts-markers highcharts-series-0 highcharts-line-series highcharts-color-0" data-z-index="0.1" opacity="1" transform="translate(85,60) scale(1 1)" clip-path="none" aria-hidden="false" role="region" tabindex="-1" aria-label="亞洲地區, line 1 of 6 with 12 data points." style="outline: none;"><path fill="#2caffe" d="M 3.0000000000000004 175 A 4 4 0 1 1 3.003999999333336 174.99999800000018 Z" stroke="#ffffff" stroke-width="0" opacity="1" class="highcharts-point highcharts-color-0" tabindex="-1" role="img" aria-label="x, 100, 5,264,210. 亞洲地區." style="outline: none;"></path><path fill="#2caffe" d="M 38 147 A 4 4 0 1 1 38.00399999933334 146.99999800000018 Z" stroke="#ffffff" stroke-width="0" opacity="1" class="highcharts-point highcharts-color-0" tabindex="-1" role="img" aria-label="x, 101, 6,473,684. 亞洲地區." style="outline: none;"></path><path fill="#2caffe" d="M 73 131 A 4 4 0 1 1 73.00399999933333 130.99999800000018 Z" stroke="#ffffff" stroke-width="0" opacity="1" class="highcharts-point highcharts-color-0" tabindex="-1" role="img" aria-label="x, 102, 7,138,786. 亞洲地區." style="outline: none;"></path><path fill="#2caffe" d="M 108 88 A 4 4 0 1 1 108.00399999933333 87.99999800000016 Z" stroke="#ffffff" stroke-width="0" opacity="1" class="highcharts-point highcharts-color-0" tabindex="-1" role="img" aria-label="x, 103, 8,970,186. 亞洲地區." style="outline: none;"></path><path fill="#2caffe" d="M 143 76 A 4 4 0 1 1 143.00399999933333 75.99999800000016 Z" stroke="#ffffff" stroke-width="0" opacity="1" class="highcharts-point highcharts-color-0" tabindex="-1" role="img" aria-label="x, 104, 9,469,559. 亞洲地區." style="outline: none;"></path><path fill="#2caffe" d="M 178 72 A 4 4 0 1 1 178.00399999933333 71.99999800000016 Z" stroke="#ffffff" stroke-width="0" opacity="1" class="highcharts-point highcharts-color-0" tabindex="-1" role="img" aria-label="x, 105, 9,624,793. 亞洲地區." style="outline: none;"></path><path fill="#2caffe" d="M 213 73 A 4 4 0 1 1 213.00399999933333 72.99999800000016 Z" stroke="#ffffff" stroke-width="0" opacity="1" class="highcharts-point highcharts-color-0" tabindex="-1" role="img" aria-label="x, 106, 9,585,635. 亞洲地區." style="outline: none;"></path><path fill="#2caffe" d="M 248 67 A 4 4 0 1 1 248.00399999933333 66.99999800000016 Z" stroke="#ffffff" stroke-width="0" opacity="1" class="highcharts-point highcharts-color-0" tabindex="-1" role="img" aria-label="x, 107, 9,845,761. 亞洲地區." style="outline: none;"></path><path fill="#2caffe" d="M 283 50 A 4 4 0 1 1 283.00399999933336 49.99999800000017 Z" stroke="#ffffff" stroke-width="0" opacity="1" class="highcharts-point highcharts-color-0" tabindex="-1" role="img" aria-label="x, 108, 10,561,699. 亞洲地區." style="outline: none;"></path><path fill="#2caffe" d="M 318 272 A 4 4 0 1 1 318.00399999933336 271.9999980000002 Z" stroke="#ffffff" stroke-width="0" opacity="1" class="highcharts-point highcharts-color-0" tabindex="-1" role="img" aria-label="x, 109, 1,183,987. 亞洲地區." style="outline: none;"></path><path fill="#2caffe" d="M 353 297 A 4 4 0 1 1 353.00399999933336 296.9999980000002 Z" stroke="#ffffff" stroke-width="0" opacity="1" class="highcharts-point highcharts-color-0" tabindex="-1" role="img" aria-label="x, 110, 105,996. 亞洲地區." style="outline: none;"></path><path fill="#2caffe" d="M 388 283 A 4 4 0 1 1 388.00399999933336 282.9999980000002 Z" stroke="#ffffff" stroke-width="0" opacity="1" class="highcharts-point highcharts-color-0" tabindex="-1" role="img" aria-label="x, 111, 696,792. 亞洲地區." style="outline: none;"></path></g><g class="highcharts-series highcharts-series-1 highcharts-line-series highcharts-color-1" data-z-index="0.1" opacity="1" transform="translate(85,60) scale(1 1)" clip-path="url(#highcharts-rmny0lb-94-)" aria-hidden="true"><path fill="none" d="M 3.8431372549019 295.78834816 L 38.780748663102 295.7900768 L 73.718360071301 295.7917344 L 108.6559714795 295.7641472 L 143.5935828877 295.7594112 L 178.5311942959 295.74738176 L 213.4688057041 295.72337024 L 248.4064171123 295.71496384 L 283.3440285205 295.70312384 L 318.2816399287 295.94075264 L 353.2192513369 295.97866432 L 388.1568627451 295.9192512" class="highcharts-graph" data-z-index="1" stroke="#544fc5" stroke-width="2" stroke-linejoin="round" stroke-linecap="round" filter="none"></path></g><g class="highcharts-markers highcharts-series-1 highcharts-line-series highcharts-color-1" data-z-index="0.1" opacity="1" transform="translate(85,60) scale(1 1)" clip-path="none" aria-hidden="false" role="region" tabindex="-1" aria-label="非洲地區, line 2 of 6 with 12 data points." style="outline: none;"><path fill="#544fc5" d="M 3 292 L 7 296 L 3 300 L -1 296 Z" stroke="#ffffff" stroke-width="0" opacity="1" class="highcharts-point highcharts-color-1" tabindex="-1" role="img" aria-label="x, 100, 8,938. 非洲地區." style="outline: none;"></path><path fill="#544fc5" d="M 38 292 L 42 296 L 38 300 L 34 296 Z" stroke="#ffffff" stroke-width="0" opacity="1" class="highcharts-point highcharts-color-1" tabindex="-1" role="img" aria-label="x, 101, 8,865. 非洲地區." style="outline: none;"></path><path fill="#544fc5" d="M 73 292 L 77 296 L 73 300 L 69 296 Z" stroke="#ffffff" stroke-width="0" opacity="1" class="highcharts-point highcharts-color-1" tabindex="-1" role="img" aria-label="x, 102, 8,795. 非洲地區." style="outline: none;"></path><path fill="#544fc5" d="M 108 292 L 112 296 L 108 300 L 104 296 Z" stroke="#ffffff" stroke-width="0" opacity="1" class="highcharts-point highcharts-color-1" tabindex="-1" role="img" aria-label="x, 103, 9,960. 非洲地區." style="outline: none;"></path><path fill="#544fc5" d="M 143 292 L 147 296 L 143 300 L 139 296 Z" stroke="#ffffff" stroke-width="0" opacity="1" class="highcharts-point highcharts-color-1" tabindex="-1" role="img" aria-label="x, 104, 10,160. 非洲地區." style="outline: none;"></path><path fill="#544fc5" d="M 178 292 L 182 296 L 178 300 L 174 296 Z" stroke="#ffffff" stroke-width="0" opacity="1" class="highcharts-point highcharts-color-1" tabindex="-1" role="img" aria-label="x, 105, 10,668. 非洲地區." style="outline: none;"></path><path fill="#544fc5" d="M 213 292 L 217 296 L 213 300 L 209 296 Z" stroke="#ffffff" stroke-width="0" opacity="1" class="highcharts-point highcharts-color-1" tabindex="-1" role="img" aria-label="x, 106, 11,682. 非洲地區." style="outline: none;"></path><path fill="#544fc5" d="M 248 292 L 252 296 L 248 300 L 244 296 Z" stroke="#ffffff" stroke-width="0" opacity="1" class="highcharts-point highcharts-color-1" tabindex="-1" role="img" aria-label="x, 107, 12,037. 非洲地區." style="outline: none;"></path><path fill="#544fc5" d="M 283 292 L 287 296 L 283 300 L 279 296 Z" stroke="#ffffff" stroke-width="0" opacity="1" class="highcharts-point highcharts-color-1" tabindex="-1" role="img" aria-label="x, 108, 12,537. 非洲地區." style="outline: none;"></path><path fill="#544fc5" d="M 318 292 L 322 296 L 318 300 L 314 296 Z" stroke="#ffffff" stroke-width="0" opacity="1" class="highcharts-point highcharts-color-1" tabindex="-1" role="img" aria-label="x, 109, 2,502. 非洲地區." style="outline: none;"></path><path fill="#544fc5" d="M 353 292 L 357 296 L 353 300 L 349 296 Z" stroke="#ffffff" stroke-width="0" opacity="1" class="highcharts-point highcharts-color-1" tabindex="-1" role="img" aria-label="x, 110, 901. 非洲地區." style="outline: none;"></path><path fill="#544fc5" d="M 388 292 L 392 296 L 388 300 L 384 296 Z" stroke="#ffffff" stroke-width="0" opacity="1" class="highcharts-point highcharts-color-1" tabindex="-1" role="img" aria-label="x, 111, 3,410. 非洲地區." style="outline: none;"></path></g><g class="highcharts-series highcharts-series-2 highcharts-line-series highcharts-color-2" data-z-index="0.1" opacity="1" transform="translate(85,60) scale(1 1)" clip-path="url(#highcharts-rmny0lb-94-)" aria-hidden="true"><path fill="none" d="M 3.8431372549019 284.27517952 L 38.780748663102 284.21690304 L 73.718360071301 284.10207872 L 108.6559714795 282.61192 L 143.5935828877 282.07161344 L 178.5311942959 280.62369984 L 213.4688057041 279.37547968 L 248.4064171123 278.65492096 L 283.3440285205 277.85510528 L 318.2816399287 293.48714944 L 353.2192513369 295.65327744 L 388.1568627451 293.42262144" class="highcharts-graph" data-z-index="1" stroke="#00e272" stroke-width="2" stroke-linejoin="round" stroke-linecap="round" filter="none"></path></g><g class="highcharts-markers highcharts-series-2 highcharts-line-series highcharts-color-2" data-z-index="0.1" opacity="1" transform="translate(85,60) scale(1 1)" clip-path="none" aria-hidden="false" role="region" tabindex="-1" aria-label="美洲地區, line 3 of 6 with 12 data points." style="outline: none;"><path fill="#00e272" d="M -1 280 L 7 280 L 7 288 L -1 288 Z" stroke="#ffffff" stroke-width="0" opacity="1" class="highcharts-point highcharts-color-2" tabindex="-1" role="img" aria-label="x, 100, 495,136. 美洲地區." style="outline: none;"></path><path fill="#00e272" d="M 34 280 L 42 280 L 42 288 L 34 288 Z" stroke="#ffffff" stroke-width="0" opacity="1" class="highcharts-point highcharts-color-2" tabindex="-1" role="img" aria-label="x, 101, 497,597. 美洲地區." style="outline: none;"></path><path fill="#00e272" d="M 69 280 L 77 280 L 77 288 L 69 288 Z" stroke="#ffffff" stroke-width="0" opacity="1" class="highcharts-point highcharts-color-2" tabindex="-1" role="img" aria-label="x, 102, 502,446. 美洲地區." style="outline: none;"></path><path fill="#00e272" d="M 104 279 L 112 279 L 112 287 L 104 287 Z" stroke="#ffffff" stroke-width="0" opacity="1" class="highcharts-point highcharts-color-2" tabindex="-1" role="img" aria-label="x, 103, 565,375. 美洲地區." style="outline: none;"></path><path fill="#00e272" d="M 139 278 L 147 278 L 147 286 L 139 286 Z" stroke="#ffffff" stroke-width="0" opacity="1" class="highcharts-point highcharts-color-2" tabindex="-1" role="img" aria-label="x, 104, 588,192. 美洲地區." style="outline: none;"></path><path fill="#00e272" d="M 174 277 L 182 277 L 182 285 L 174 285 Z" stroke="#ffffff" stroke-width="0" opacity="1" class="highcharts-point highcharts-color-2" tabindex="-1" role="img" aria-label="x, 105, 649,337. 美洲地區." style="outline: none;"></path><path fill="#00e272" d="M 209 275 L 217 275 L 217 283 L 209 283 Z" stroke="#ffffff" stroke-width="0" opacity="1" class="highcharts-point highcharts-color-2" tabindex="-1" role="img" aria-label="x, 106, 702,049. 美洲地區." style="outline: none;"></path><path fill="#00e272" d="M 244 275 L 252 275 L 252 283 L 244 283 Z" stroke="#ffffff" stroke-width="0" opacity="1" class="highcharts-point highcharts-color-2" tabindex="-1" role="img" aria-label="x, 107, 732,478. 美洲地區." style="outline: none;"></path><path fill="#00e272" d="M 279 274 L 287 274 L 287 282 L 279 282 Z" stroke="#ffffff" stroke-width="0" opacity="1" class="highcharts-point highcharts-color-2" tabindex="-1" role="img" aria-label="x, 108, 766,254. 美洲地區." style="outline: none;"></path><path fill="#00e272" d="M 314 289 L 322 289 L 322 297 L 314 297 Z" stroke="#ffffff" stroke-width="0" opacity="1" class="highcharts-point highcharts-color-2" tabindex="-1" role="img" aria-label="x, 109, 106,117. 美洲地區." style="outline: none;"></path><path fill="#00e272" d="M 349 292 L 357 292 L 357 300 L 349 300 Z" stroke="#ffffff" stroke-width="0" opacity="1" class="highcharts-point highcharts-color-2" tabindex="-1" role="img" aria-label="x, 110, 14,642. 美洲地區." style="outline: none;"></path><path fill="#00e272" d="M 384 289 L 392 289 L 392 297 L 384 297 Z" stroke="#ffffff" stroke-width="0" opacity="1" class="highcharts-point highcharts-color-2" tabindex="-1" role="img" aria-label="x, 111, 108,842. 美洲地區." style="outline: none;"></path></g><g class="highcharts-series highcharts-series-3 highcharts-line-series highcharts-color-3" data-z-index="0.1" opacity="1" transform="translate(85,60) scale(1 1)" clip-path="url(#highcharts-rmny0lb-94-)" aria-hidden="true"><path fill="none" d="M 3.8431372549019 294.3296128 L 38.780748663102 294.21419648 L 73.718360071301 294.15954304 L 108.6559714795 293.79494208 L 143.5935828877 293.84954816 L 178.5311942959 293.67400832 L 213.4688057041 293.43441408 L 248.4064171123 293.11821504 L 283.3440285205 292.8065152 L 318.2816399287 295.46468992 L 353.2192513369 295.96784256 L 388.1568627451 295.6466944" class="highcharts-graph" data-z-index="1" stroke="#fe6a35" stroke-width="2" stroke-linejoin="round" stroke-linecap="round" filter="none"></path></g><g class="highcharts-markers highcharts-series-3 highcharts-line-series highcharts-color-3" data-z-index="0.1" opacity="1" transform="translate(85,60) scale(1 1)" clip-path="none" aria-hidden="false" role="region" tabindex="-1" aria-label="大洋洲地區, line 4 of 6 with 12 data points." style="outline: none;"><path fill="#fe6a35" d="M 3 290 L 7 298 L -1 298 Z" stroke="#ffffff" stroke-width="0" opacity="1" class="highcharts-point highcharts-color-3" tabindex="-1" role="img" aria-label="x, 100, 70,540. 大洋洲地區." style="outline: none;"></path><path fill="#fe6a35" d="M 38 290 L 42 298 L 34 298 Z" stroke="#ffffff" stroke-width="0" opacity="1" class="highcharts-point highcharts-color-3" tabindex="-1" role="img" aria-label="x, 101, 75,414. 大洋洲地區." style="outline: none;"></path><path fill="#fe6a35" d="M 73 290 L 77 298 L 69 298 Z" stroke="#ffffff" stroke-width="0" opacity="1" class="highcharts-point highcharts-color-3" tabindex="-1" role="img" aria-label="x, 102, 77,722. 大洋洲地區." style="outline: none;"></path><path fill="#fe6a35" d="M 108 290 L 112 298 L 104 298 Z" stroke="#ffffff" stroke-width="0" opacity="1" class="highcharts-point highcharts-color-3" tabindex="-1" role="img" aria-label="x, 103, 93,119. 大洋洲地區." style="outline: none;"></path><path fill="#fe6a35" d="M 143 290 L 147 298 L 139 298 Z" stroke="#ffffff" stroke-width="0" opacity="1" class="highcharts-point highcharts-color-3" tabindex="-1" role="img" aria-label="x, 104, 90,813. 大洋洲地區." style="outline: none;"></path><path fill="#fe6a35" d="M 178 290 L 182 298 L 174 298 Z" stroke="#ffffff" stroke-width="0" opacity="1" class="highcharts-point highcharts-color-3" tabindex="-1" role="img" aria-label="x, 105, 98,226. 大洋洲地區." style="outline: none;"></path><path fill="#fe6a35" d="M 213 289 L 217 297 L 209 297 Z" stroke="#ffffff" stroke-width="0" opacity="1" class="highcharts-point highcharts-color-3" tabindex="-1" role="img" aria-label="x, 106, 108,344. 大洋洲地區." style="outline: none;"></path><path fill="#fe6a35" d="M 248 289 L 252 297 L 244 297 Z" stroke="#ffffff" stroke-width="0" opacity="1" class="highcharts-point highcharts-color-3" tabindex="-1" role="img" aria-label="x, 107, 121,697. 大洋洲地區." style="outline: none;"></path><path fill="#fe6a35" d="M 283 289 L 287 297 L 279 297 Z" stroke="#ffffff" stroke-width="0" opacity="1" class="highcharts-point highcharts-color-3" tabindex="-1" role="img" aria-label="x, 108, 134,860. 大洋洲地區." style="outline: none;"></path><path fill="#fe6a35" d="M 318 291 L 322 299 L 314 299 Z" stroke="#ffffff" stroke-width="0" opacity="1" class="highcharts-point highcharts-color-3" tabindex="-1" role="img" aria-label="x, 109, 22,606. 大洋洲地區." style="outline: none;"></path><path fill="#fe6a35" d="M 353 292 L 357 300 L 349 300 Z" stroke="#ffffff" stroke-width="0" opacity="1" class="highcharts-point highcharts-color-3" tabindex="-1" role="img" aria-label="x, 110, 1,358. 大洋洲地區." style="outline: none;"></path><path fill="#fe6a35" d="M 388 292 L 392 300 L 384 300 Z" stroke="#ffffff" stroke-width="0" opacity="1" class="highcharts-point highcharts-color-3" tabindex="-1" role="img" aria-label="x, 111, 14,920. 大洋洲地區." style="outline: none;"></path></g><g class="highcharts-series highcharts-series-4 highcharts-line-series highcharts-color-4" data-z-index="0.1" opacity="1" transform="translate(85,60) scale(1 1)" clip-path="url(#highcharts-rmny0lb-94-)" aria-hidden="true"><path fill="none" d="M 3.8431372549019 290.97633536 L 38.780748663102 290.8366944 L 73.718360071301 290.71789184 L 108.6559714795 289.7276416 L 143.5935828877 289.5108512 L 178.5311942959 288.90177792 L 213.4688057041 288.1834688 L 248.4064171123 287.70977408 L 283.3440285205 286.84171264 L 318.2816399287 294.59075584 L 353.2192513369 295.61134016 L 388.1568627451 294.4373568" class="highcharts-graph" data-z-index="1" stroke="#6b8abc" stroke-width="2" stroke-linejoin="round" stroke-linecap="round" filter="none"></path></g><g class="highcharts-markers highcharts-series-4 highcharts-line-series highcharts-color-4" data-z-index="0.1" opacity="1" transform="translate(85,60) scale(1 1)" clip-path="none" aria-hidden="false" role="region" tabindex="-1" aria-label="歐洲地區, line 5 of 6 with 12 data points." style="outline: none;"><path fill="#6b8abc" d="M -1 287 L 7 287 L 3 295 Z" stroke="#ffffff" stroke-width="0" opacity="1" class="highcharts-point highcharts-color-4" tabindex="-1" role="img" aria-label="x, 100, 212,148. 歐洲地區." style="outline: none;"></path><path fill="#6b8abc" d="M 34 287 L 42 287 L 38 295 Z" stroke="#ffffff" stroke-width="0" opacity="1" class="highcharts-point highcharts-color-4" tabindex="-1" role="img" aria-label="x, 101, 218,045. 歐洲地區." style="outline: none;"></path><path fill="#6b8abc" d="M 69 287 L 77 287 L 73 295 Z" stroke="#ffffff" stroke-width="0" opacity="1" class="highcharts-point highcharts-color-4" tabindex="-1" role="img" aria-label="x, 102, 223,062. 歐洲地區." style="outline: none;"></path><path fill="#6b8abc" d="M 104 286 L 112 286 L 108 294 Z" stroke="#ffffff" stroke-width="0" opacity="1" class="highcharts-point highcharts-color-4" tabindex="-1" role="img" aria-label="x, 103, 264,880. 歐洲地區." style="outline: none;"></path><path fill="#6b8abc" d="M 139 286 L 147 286 L 143 294 Z" stroke="#ffffff" stroke-width="0" opacity="1" class="highcharts-point highcharts-color-4" tabindex="-1" role="img" aria-label="x, 104, 274,035. 歐洲地區." style="outline: none;"></path><path fill="#6b8abc" d="M 174 285 L 182 285 L 178 293 Z" stroke="#ffffff" stroke-width="0" opacity="1" class="highcharts-point highcharts-color-4" tabindex="-1" role="img" aria-label="x, 105, 299,756. 歐洲地區." style="outline: none;"></path><path fill="#6b8abc" d="M 209 284 L 217 284 L 213 292 Z" stroke="#ffffff" stroke-width="0" opacity="1" class="highcharts-point highcharts-color-4" tabindex="-1" role="img" aria-label="x, 106, 330,090. 歐洲地區." style="outline: none;"></path><path fill="#6b8abc" d="M 244 284 L 252 284 L 248 292 Z" stroke="#ffffff" stroke-width="0" opacity="1" class="highcharts-point highcharts-color-4" tabindex="-1" role="img" aria-label="x, 107, 350,094. 歐洲地區." style="outline: none;"></path><path fill="#6b8abc" d="M 279 283 L 287 283 L 283 291 Z" stroke="#ffffff" stroke-width="0" opacity="1" class="highcharts-point highcharts-color-4" tabindex="-1" role="img" aria-label="x, 108, 386,752. 歐洲地區." style="outline: none;"></path><path fill="#6b8abc" d="M 314 291 L 322 291 L 318 299 Z" stroke="#ffffff" stroke-width="0" opacity="1" class="highcharts-point highcharts-color-4" tabindex="-1" role="img" aria-label="x, 109, 59,512. 歐洲地區." style="outline: none;"></path><path fill="#6b8abc" d="M 349 292 L 357 292 L 353 300 Z" stroke="#ffffff" stroke-width="0" opacity="1" class="highcharts-point highcharts-color-4" tabindex="-1" role="img" aria-label="x, 110, 16,413. 歐洲地區." style="outline: none;"></path><path fill="#6b8abc" d="M 384 290 L 392 290 L 388 298 Z" stroke="#ffffff" stroke-width="0" opacity="1" class="highcharts-point highcharts-color-4" tabindex="-1" role="img" aria-label="x, 111, 65,990. 歐洲地區." style="outline: none;"></path></g><g class="highcharts-series highcharts-series-5 highcharts-line-series highcharts-color-5" data-z-index="0.1" opacity="1" transform="translate(85,60) scale(1 1)" clip-path="url(#highcharts-rmny0lb-94-)" aria-hidden="true"><path fill="none" d="M 3.8431372549019 295.13539584 L 38.780748663102 295.1033568 L 73.718360071301 294.44969408 L 108.6559714795 295.84172288 L 143.5935828877 295.83362432 L 178.5311942959 295.82242368 L 213.4688057041 295.95735232 L 248.4064171123 295.8901248 L 283.3440285205 295.95256896 L 318.2816399287 295.92571584 L 353.2192513369 295.97231808 L 388.1568627451 295.85773056" class="highcharts-graph" data-z-index="1" stroke="#d568fb" stroke-width="2" stroke-linejoin="round" stroke-linecap="round" filter="none"></path></g><g class="highcharts-markers highcharts-series-5 highcharts-line-series highcharts-color-5" data-z-index="0.1" opacity="1" transform="translate(85,60) scale(1 1)" clip-path="none" aria-hidden="false" role="region" tabindex="-1" aria-label="其他未列明, line 6 of 6 with 12 data points." style="outline: none;"><path fill="#d568fb" d="M 3.0000000000000004 299 A 4 4 0 1 1 3.003999999333336 298.9999980000002 Z" stroke="#ffffff" stroke-width="0" opacity="1" class="highcharts-point highcharts-color-5" tabindex="-1" role="img" aria-label="x, 100, 36,512. 其他未列明." style="outline: none;"></path><path fill="#d568fb" d="M 38 299 A 4 4 0 1 1 38.00399999933334 298.9999980000002 Z" stroke="#ffffff" stroke-width="0" opacity="1" class="highcharts-point highcharts-color-5" tabindex="-1" role="img" aria-label="x, 101, 37,865. 其他未列明." style="outline: none;"></path><path fill="#d568fb" d="M 73 298 A 4 4 0 1 1 73.00399999933333 297.9999980000002 Z" stroke="#ffffff" stroke-width="0" opacity="1" class="highcharts-point highcharts-color-5" tabindex="-1" role="img" aria-label="x, 102, 65,469. 其他未列明." style="outline: none;"></path><path fill="#d568fb" d="M 108 300 A 4 4 0 1 1 108.00399999933333 299.9999980000002 Z" stroke="#ffffff" stroke-width="0" opacity="1" class="highcharts-point highcharts-color-5" tabindex="-1" role="img" aria-label="x, 103, 6,684. 其他未列明." style="outline: none;"></path><path fill="#d568fb" d="M 143 300 A 4 4 0 1 1 143.00399999933333 299.9999980000002 Z" stroke="#ffffff" stroke-width="0" opacity="1" class="highcharts-point highcharts-color-5" tabindex="-1" role="img" aria-label="x, 104, 7,026. 其他未列明." style="outline: none;"></path><path fill="#d568fb" d="M 178 300 A 4 4 0 1 1 178.00399999933333 299.9999980000002 Z" stroke="#ffffff" stroke-width="0" opacity="1" class="highcharts-point highcharts-color-5" tabindex="-1" role="img" aria-label="x, 105, 7,499. 其他未列明." style="outline: none;"></path><path fill="#d568fb" d="M 213 300 A 4 4 0 1 1 213.00399999933333 299.9999980000002 Z" stroke="#ffffff" stroke-width="0" opacity="1" class="highcharts-point highcharts-color-5" tabindex="-1" role="img" aria-label="x, 106, 1,801. 其他未列明." style="outline: none;"></path><path fill="#d568fb" d="M 248 300 A 4 4 0 1 1 248.00399999933333 299.9999980000002 Z" stroke="#ffffff" stroke-width="0" opacity="1" class="highcharts-point highcharts-color-5" tabindex="-1" role="img" aria-label="x, 107, 4,640. 其他未列明." style="outline: none;"></path><path fill="#d568fb" d="M 283 300 A 4 4 0 1 1 283.00399999933336 299.9999980000002 Z" stroke="#ffffff" stroke-width="0" opacity="1" class="highcharts-point highcharts-color-5" tabindex="-1" role="img" aria-label="x, 108, 2,003. 其他未列明." style="outline: none;"></path><path fill="#d568fb" d="M 318 300 A 4 4 0 1 1 318.00399999933336 299.9999980000002 Z" stroke="#ffffff" stroke-width="0" opacity="1" class="highcharts-point highcharts-color-5" tabindex="-1" role="img" aria-label="x, 109, 3,137. 其他未列明." style="outline: none;"></path><path fill="#d568fb" d="M 353 300 A 4 4 0 1 1 353.00399999933336 299.9999980000002 Z" stroke="#ffffff" stroke-width="0" opacity="1" class="highcharts-point highcharts-color-5" tabindex="-1" role="img" aria-label="x, 110, 1,169. 其他未列明." style="outline: none;"></path><path fill="#d568fb" d="M 388 300 A 4 4 0 1 1 388.00399999933336 299.9999980000002 Z" stroke="#ffffff" stroke-width="0" opacity="1" class="highcharts-point highcharts-color-5" tabindex="-1" role="img" aria-label="x, 111, 6,008. 其他未列明." style="outline: none;"></path></g></g><g class="highcharts-label highcharts-series-label highcharts-series-label-0 highcharts-color-0" opacity="1" data-z-index="3" transform="translate(256,130)" aria-hidden="true"><path fill="none" class="highcharts-label-box" d="M 0 0" stroke="#2caffe" stroke-width="1"></path><text x="0" data-z-index="1" y="12" style="color: rgb(44, 175, 254); font-size: 0.8em; font-weight: bold; fill: rgb(44, 175, 254);">亞洲地區</text></g><g class="highcharts-label highcharts-series-label highcharts-series-label-2 highcharts-color-2" opacity="1" data-z-index="3" transform="translate(303,321)" aria-hidden="true"><path fill="none" class="highcharts-label-box" d="M 0 0" stroke="#00e272" stroke-width="1"></path><text x="0" data-z-index="1" y="12" style="color: rgb(0, 226, 114); font-size: 0.8em; font-weight: bold; fill: rgb(0, 226, 114);">美洲地區</text></g><text x="10" text-anchor="start" class="highcharts-title" data-z-index="4" style="font-size: 1.2em; color: rgb(51, 51, 51); font-weight: bold; fill: rgb(51, 51, 51);" y="25" aria-hidden="true">台灣110-111年入境觀光客人數統計(依地區)</text><text x="10" text-anchor="start" class="highcharts-subtitle" data-z-index="4" style="color: rgb(102, 102, 102); font-size: 0.8em; fill: rgb(102, 102, 102);" y="45" aria-hidden="true">資料來源：中華民國觀光署</text><text x="10" text-anchor="start" class="highcharts-caption" data-z-index="4" style="color: rgb(102, 102, 102); font-size: 0.8em; fill: rgb(102, 102, 102);" y="397" aria-hidden="true"></text><g class="highcharts-legend highcharts-no-tooltip" data-z-index="7" transform="translate(489,135)" aria-hidden="true"><rect fill="none" class="highcharts-legend-box" rx="0" ry="0" stroke="#999999" stroke-width="0" filter="none" x="0" y="0" width="101" height="125"></rect><g data-z-index="1"><g><g class="highcharts-legend-item highcharts-line-series highcharts-color-0 highcharts-series-0" data-z-index="1" transform="translate(8,3)"><path fill="none" class="highcharts-graph" stroke-width="2" stroke-linecap="round" d="M 1 13 L 15 13" stroke="#2caffe"></path><path fill="#2caffe" d="M 8 17 A 4 4 0 1 1 8.003999999333336 16.99999800000017 Z" class="highcharts-point" stroke="#ffffff" stroke-width="0" opacity="1"></path><text x="21" text-anchor="start" data-z-index="2" style="color: rgb(51, 51, 51); cursor: pointer; font-size: 0.8em; text-decoration: none; fill: rgb(51, 51, 51);" y="17">亞洲地區</text></g><g class="highcharts-legend-item highcharts-line-series highcharts-color-1 highcharts-series-1" data-z-index="1" transform="translate(8,22)"><path fill="none" class="highcharts-graph" stroke-width="2" stroke-linecap="round" d="M 1 13 L 15 13" stroke="#544fc5"></path><path fill="#544fc5" d="M 8 9 L 12 13 L 8 17 L 4 13 Z" class="highcharts-point" stroke="#ffffff" stroke-width="0" opacity="1"></path><text x="21" y="17" text-anchor="start" data-z-index="2" style="color: rgb(51, 51, 51); cursor: pointer; font-size: 0.8em; text-decoration: none; fill: rgb(51, 51, 51);">非洲地區</text></g><g class="highcharts-legend-item highcharts-line-series highcharts-color-2 highcharts-series-2" data-z-index="1" transform="translate(8,41)"><path fill="none" class="highcharts-graph" stroke-width="2" stroke-linecap="round" d="M 1 13 L 15 13" stroke="#00e272"></path><path fill="#00e272" d="M 4 9 L 12 9 L 12 17 L 4 17 Z" class="highcharts-point" stroke="#ffffff" stroke-width="0" opacity="1"></path><text x="21" y="17" text-anchor="start" data-z-index="2" style="color: rgb(51, 51, 51); cursor: pointer; font-size: 0.8em; text-decoration: none; fill: rgb(51, 51, 51);">美洲地區</text></g><g class="highcharts-legend-item highcharts-line-series highcharts-color-3 highcharts-series-3" data-z-index="1" transform="translate(8,60)"><path fill="none" class="highcharts-graph" stroke-width="2" stroke-linecap="round" d="M 1 13 L 15 13" stroke="#fe6a35"></path><path fill="#fe6a35" d="M 8 9 L 12 17 L 4 17 Z" class="highcharts-point" stroke="#ffffff" stroke-width="0" opacity="1"></path><text x="21" y="17" text-anchor="start" data-z-index="2" style="color: rgb(51, 51, 51); cursor: pointer; font-size: 0.8em; text-decoration: none; fill: rgb(51, 51, 51);">大洋洲地區</text></g><g class="highcharts-legend-item highcharts-line-series highcharts-color-4 highcharts-series-4" data-z-index="1" transform="translate(8,79)"><path fill="none" class="highcharts-graph" stroke-width="2" stroke-linecap="round" d="M 1 13 L 15 13" stroke="#6b8abc"></path><path fill="#6b8abc" d="M 4 9 L 12 9 L 8 17 Z" class="highcharts-point" stroke="#ffffff" stroke-width="0" opacity="1"></path><text x="21" y="17" text-anchor="start" data-z-index="2" style="color: rgb(51, 51, 51); cursor: pointer; font-size: 0.8em; text-decoration: none; fill: rgb(51, 51, 51);">歐洲地區</text></g><g class="highcharts-legend-item highcharts-line-series highcharts-color-5 highcharts-series-5" data-z-index="1" transform="translate(8,98)"><path fill="none" class="highcharts-graph" stroke-width="2" stroke-linecap="round" d="M 1 13 L 15 13" stroke="#d568fb"></path><path fill="#d568fb" d="M 8 17 A 4 4 0 1 1 8.003999999333336 16.99999800000017 Z" class="highcharts-point" stroke="#ffffff" stroke-width="0" opacity="1"></path><text x="21" y="17" text-anchor="start" data-z-index="2" style="color: rgb(51, 51, 51); cursor: pointer; font-size: 0.8em; text-decoration: none; fill: rgb(51, 51, 51);">其他未列明</text></g></g></g></g><g class="highcharts-axis-labels highcharts-xaxis-labels" data-z-index="7" aria-hidden="true"><text x="88.843137254902" text-anchor="middle" transform="translate(0,0)" style="color: rgb(51, 51, 51); cursor: default; font-size: 0.8em; fill: rgb(51, 51, 51);" y="383" opacity="1">100</text><text x="158.7183600713" text-anchor="middle" transform="translate(0,0)" style="color: rgb(51, 51, 51); cursor: default; font-size: 0.8em; fill: rgb(51, 51, 51);" y="383" opacity="1">102</text><text x="228.5935828877" text-anchor="middle" transform="translate(0,0)" style="color: rgb(51, 51, 51); cursor: default; font-size: 0.8em; fill: rgb(51, 51, 51);" y="383" opacity="1">104</text><text x="298.4688057041" text-anchor="middle" transform="translate(0,0)" style="color: rgb(51, 51, 51); cursor: default; font-size: 0.8em; fill: rgb(51, 51, 51);" y="383" opacity="1">106</text><text x="368.3440285205" text-anchor="middle" transform="translate(0,0)" style="color: rgb(51, 51, 51); cursor: default; font-size: 0.8em; fill: rgb(51, 51, 51);" y="383" opacity="1">108</text><text x="438.2192513369" text-anchor="middle" transform="translate(0,0)" style="color: rgb(51, 51, 51); cursor: default; font-size: 0.8em; fill: rgb(51, 51, 51);" y="383" opacity="1">110</text></g><g class="highcharts-axis-labels highcharts-yaxis-labels" data-z-index="7" aria-hidden="true"><text x="70" text-anchor="end" transform="translate(0,0)" style="color: rgb(51, 51, 51); cursor: default; font-size: 0.8em; fill: rgb(51, 51, 51);" y="361" opacity="1">0</text><text x="70" text-anchor="end" transform="translate(0,0)" style="color: rgb(51, 51, 51); cursor: default; font-size: 0.8em; fill: rgb(51, 51, 51);" y="302" opacity="1">2.5M</text><text x="70" text-anchor="end" transform="translate(0,0)" style="color: rgb(51, 51, 51); cursor: default; font-size: 0.8em; fill: rgb(51, 51, 51);" y="243" opacity="1">5M</text><text x="70" text-anchor="end" transform="translate(0,0)" style="color: rgb(51, 51, 51); cursor: default; font-size: 0.8em; fill: rgb(51, 51, 51);" y="183" opacity="1">7.5M</text><text x="70" text-anchor="end" transform="translate(0,0)" style="color: rgb(51, 51, 51); cursor: default; font-size: 0.8em; fill: rgb(51, 51, 51);" y="124" opacity="1">10M</text><text x="70" text-anchor="end" transform="translate(0,0)" style="color: rgb(51, 51, 51); cursor: default; font-size: 0.8em; fill: rgb(51, 51, 51);" y="65" opacity="1">12.5M</text></g><text x="590" class="highcharts-credits" text-anchor="end" data-z-index="8" y="395" style="cursor: pointer; color: rgb(153, 153, 153); font-size: 0.6em; fill: rgb(153, 153, 153);" aria-label="Chart credits: Highcharts.com" aria-hidden="false">Highcharts.com</text></svg>